<svg xmlns="http://www.w3.org/2000/svg" viewBox="0 0 1092.69 466.28"><defs><style>.cls-1{fill:none;}.cls-1,.cls-2{stroke:#00153f;stroke-miterlimit:10;}.cls-2{fill:#b5bbc7;}</style></defs><g id="Layer_2" data-name="Layer 2"><g id="Layer_1-2" data-name="Layer 1"><rect class="cls-1" x="735.38" y="66.97" width="77.56" height="33.23" rx="2.77"/><rect class="cls-1" x="812.93" y="66.97" width="77.56" height="33.23" rx="2.77"/><rect class="cls-1" x="890.49" y="66.97" width="77.56" height="33.23" rx="2.77"/><rect class="cls-1" x="968.05" y="66.97" width="77.56" height="33.23" rx="2.77"/><rect class="cls-1" x="774.16" y="100.2" width="77.56" height="33.23" rx="2.77"/><rect class="cls-1" x="851.71" y="100.2" width="77.56" height="33.23" rx="2.77"/><rect class="cls-1" x="929.27" y="100.2" width="77.56" height="33.23" rx="2.77"/><rect class="cls-1" x="1006.83" y="100.2" width="77.56" height="33.23" rx="2.77"/><rect class="cls-1" x="735.38" y="133.44" width="77.56" height="33.23" rx="2.77"/><rect class="cls-1" x="812.93" y="133.44" width="77.56" height="33.23" rx="2.77"/><rect class="cls-1" x="890.49" y="133.44" width="77.56" height="33.23" rx="2.77"/><rect class="cls-1" x="968.05" y="133.44" width="77.56" height="33.23" rx="2.77"/><rect class="cls-1" x="510.5" y="332.84" width="77.56" height="33.23" rx="2.77"/><rect class="cls-2" x="696.6" y="166.67" width="77.56" height="33.23" rx="2.77"/><rect class="cls-1" x="774.16" y="166.67" width="77.56" height="33.23" rx="2.77"/><rect class="cls-1" x="851.71" y="166.67" width="77.56" height="33.23" rx="2.77"/><rect class="cls-1" x="929.27" y="166.67" width="77.56" height="33.23" rx="2.77"/><rect class="cls-1" x="657.82" y="199.9" width="77.56" height="33.23" rx="2.77"/><rect class="cls-1" x="735.38" y="199.9" width="77.56" height="33.23" rx="2.77"/><rect class="cls-1" x="812.93" y="199.9" width="77.56" height="33.23" rx="2.77"/><rect class="cls-1" x="890.49" y="199.9" width="77.56" height="33.23" rx="2.77"/><rect class="cls-1" x="968.05" y="199.9" width="77.56" height="33.23" rx="2.77"/><rect class="cls-1" x="432.94" y="332.84" width="77.56" height="33.23" rx="2.77"/><rect class="cls-1" x="619.04" y="233.14" width="77.56" height="33.23" rx="2.77"/><rect class="cls-1" x="696.6" y="233.14" width="77.56" height="33.23" rx="2.77"/><rect class="cls-1" x="774.16" y="233.14" width="77.56" height="33.23" rx="2.77"/><rect class="cls-1" x="851.71" y="233.14" width="77.56" height="33.23" rx="2.77"/><rect class="cls-1" x="929.27" y="233.14" width="77.56" height="33.23" rx="2.77"/><rect class="cls-1" x="588.06" y="266.37" width="77.56" height="33.23" rx="2.77"/><rect class="cls-1" x="665.62" y="266.37" width="77.56" height="33.23" rx="2.77"/><rect class="cls-1" x="743.17" y="266.37" width="77.56" height="33.23" rx="2.77"/><rect class="cls-1" x="820.73" y="266.37" width="77.56" height="33.23" rx="2.77"/><rect class="cls-1" x="898.29" y="266.37" width="77.56" height="33.23" rx="2.77"/><rect class="cls-1" x="975.85" y="266.37" width="77.56" height="33.23" rx="2.77"/><rect class="cls-1" x="626.84" y="299.61" width="77.56" height="33.23" rx="2.77"/><rect class="cls-1" x="704.39" y="299.61" width="77.56" height="33.23" rx="2.77"/><rect class="cls-1" x="781.95" y="299.61" width="77.56" height="33.23" rx="2.77"/><rect class="cls-1" x="859.51" y="299.61" width="77.56" height="33.23" rx="2.77"/><rect class="cls-1" x="937.07" y="299.61" width="77.56" height="33.23" rx="2.77"/><rect class="cls-1" x="1014.63" y="299.61" width="77.56" height="33.23" rx="2.77"/><rect class="cls-1" x="588.06" y="332.84" width="77.56" height="33.23" rx="2.77"/><rect class="cls-1" x="665.62" y="332.84" width="77.56" height="33.23" rx="2.77"/><rect class="cls-1" x="743.17" y="332.84" width="77.56" height="33.23" rx="2.77"/><rect class="cls-1" x="820.73" y="332.84" width="77.56" height="33.23" rx="2.77"/><rect class="cls-1" x="898.29" y="332.84" width="77.56" height="33.23" rx="2.77"/><rect class="cls-1" x="975.85" y="332.84" width="77.56" height="33.23" rx="2.77"/><rect class="cls-1" x="543.41" y="366.07" width="77.56" height="33.23" rx="2.77"/><rect class="cls-1" x="620.97" y="366.07" width="77.56" height="33.23" rx="2.77"/><rect class="cls-2" x="698.52" y="366.07" width="77.56" height="33.23" rx="2.77"/><rect class="cls-1" x="776.08" y="366.07" width="77.56" height="33.23" rx="2.77"/><rect class="cls-1" x="853.64" y="366.07" width="77.56" height="33.23" rx="2.77"/><rect class="cls-1" x="931.2" y="366.07" width="77.56" height="33.23" rx="2.77"/><rect class="cls-1" x="582.19" y="399.31" width="77.56" height="33.23" rx="2.77"/><rect class="cls-1" x="659.75" y="399.31" width="77.56" height="33.23" rx="2.77"/><rect class="cls-1" x="737.3" y="399.31" width="77.56" height="33.23" rx="2.77"/><rect class="cls-1" x="814.86" y="399.31" width="77.56" height="33.23" rx="2.77"/><rect class="cls-1" x="892.42" y="399.31" width="77.56" height="33.23" rx="2.77"/><rect class="cls-1" x="969.98" y="399.31" width="77.56" height="33.23" rx="2.77"/><rect class="cls-1" x="543.41" y="432.54" width="77.56" height="33.23" rx="2.77"/><rect class="cls-1" x="620.97" y="432.54" width="77.56" height="33.23" rx="2.77"/><rect class="cls-1" x="698.52" y="432.54" width="77.56" height="33.23" rx="2.77"/><rect class="cls-1" x="776.08" y="432.54" width="77.56" height="33.23" rx="2.77"/><rect class="cls-1" x="853.64" y="432.54" width="77.56" height="33.23" rx="2.77"/><rect class="cls-1" x="931.2" y="432.54" width="77.56" height="33.23" rx="2.77"/><rect class="cls-1" x="0.5" y="432.54" width="77.56" height="33.23" rx="2.77"/><rect class="cls-1" x="233.17" y="366.07" width="77.56" height="33.23" rx="2.77"/><rect class="cls-1" x="310.73" y="366.07" width="77.56" height="33.23" rx="2.77"/><rect class="cls-1" x="388.29" y="366.07" width="77.56" height="33.23" rx="2.77"/><rect class="cls-1" x="465.85" y="366.07" width="77.56" height="33.23" rx="2.77"/><rect class="cls-1" x="116.84" y="399.31" width="77.56" height="33.23" rx="2.77"/><rect class="cls-1" x="194.4" y="399.31" width="77.56" height="33.23" rx="2.77"/><rect class="cls-1" x="271.95" y="399.31" width="77.56" height="33.23" rx="2.77"/><rect class="cls-1" x="349.51" y="399.31" width="77.56" height="33.23" rx="2.77"/><rect class="cls-1" x="427.07" y="399.31" width="77.56" height="33.23" rx="2.77"/><rect class="cls-1" x="504.63" y="399.31" width="77.56" height="33.23" rx="2.77"/><rect class="cls-1" x="78.06" y="432.54" width="77.56" height="33.23" rx="2.77"/><rect class="cls-1" x="155.62" y="432.54" width="77.56" height="33.23" rx="2.77"/><rect class="cls-1" x="233.17" y="432.54" width="77.56" height="33.23" rx="2.77"/><rect class="cls-2" x="310.73" y="432.54" width="77.56" height="33.23" rx="2.77"/><rect class="cls-1" x="388.29" y="432.54" width="77.56" height="33.23" rx="2.77"/><rect class="cls-1" x="465.85" y="432.54" width="77.56" height="33.23" rx="2.77"/><rect class="cls-1" x="696.6" y="33.73" width="77.56" height="33.23" rx="2.77"/><rect class="cls-1" x="774.16" y="33.73" width="77.56" height="33.23" rx="2.77"/><rect class="cls-2" x="851.71" y="33.73" width="77.56" height="33.23" rx="2.77"/><rect class="cls-1" x="929.27" y="33.73" width="77.56" height="33.23" rx="2.77"/><rect class="cls-1" x="1006.83" y="33.73" width="77.56" height="33.23" rx="2.77"/><rect class="cls-1" x="737.3" y="0.5" width="77.56" height="33.23" rx="2.77"/><rect class="cls-1" x="814.86" y="0.5" width="77.56" height="33.23" rx="2.77"/><rect class="cls-1" x="892.42" y="0.5" width="77.56" height="33.23" rx="2.77"/><rect class="cls-1" x="969.98" y="0.5" width="77.56" height="33.23" rx="2.77"/><rect class="cls-1" x="1006.83" y="233.14" width="77.56" height="33.23" rx="2.77"/><rect class="cls-1" x="1006.83" y="166.67" width="77.56" height="33.23" rx="2.77"/><rect class="cls-1" x="1008.76" y="366.07" width="77.56" height="33.23" rx="2.77"/><rect class="cls-1" x="1008.76" y="432.54" width="77.56" height="33.23" rx="2.77"/></g></g></svg>